<?xml version="1.0" encoding="UTF-8"?>
<svg width="80" height="24" viewBox="0 0 80 24" fill="none" xmlns="http://www.w3.org/2000/svg">
  <path d="M14.4 3.2C13.2 2.4 11.8 2 10.2 2 8.6 2 7.2 2.4 6 3.2 4.8 4 3.9 5.1 3.3 6.5 2.7 7.9 2.4 9.4 2.4 11c0 1.6.3 3.1.9 4.5.6 1.4 1.5 2.5 2.7 3.3 1.2.8 2.6 1.2 4.2 1.2 1.6 0 3-.4 4.2-1.2 1.2-.8 2.1-1.9 2.7-3.3.6-1.4.9-2.9.9-4.5 0-1.6-.3-3.1-.9-4.5-.6-1.4-1.5-2.5-2.7-3.3zm-4.2 11.6c-.8 0-1.5-.3-2.1-.8-.6-.5-.9-1.2-.9-2s.3-1.5.9-2c.6-.5 1.3-.8 2.1-.8.8 0 1.5.3 2.1.8.6.5.9 1.2.9 2s-.3 1.5-.9 2c-.6.5-1.3.8-2.1.8z" fill="#000"/>
  <path d="M31.2 3.2C30 2.4 28.6 2 27 2c-1.6 0-3 .4-4.2 1.2-1.2.8-2.1 1.9-2.7 3.3-.6 1.4-.9 2.9-.9 4.5 0 1.6.3 3.1.9 4.5.6 1.4 1.5 2.5 2.7 3.3 1.2.8 2.6 1.2 4.2 1.2 1.6 0 3-.4 4.2-1.2 1.2-.8 2.1-1.9 2.7-3.3.6-1.4.9-2.9.9-4.5 0-1.6-.3-3.1-.9-4.5-.6-1.4-1.5-2.5-2.7-3.3zm-4.2 11.6c-.8 0-1.5-.3-2.1-.8-.6-.5-.9-1.2-.9-2s.3-1.5.9-2c.6-.5 1.3-.8 2.1-.8.8 0 1.5.3 2.1.8.6.5.9 1.2.9 2s-.3 1.5-.9 2c-.6.5-1.3.8-2.1.8z" fill="#000"/>
  <path d="M52.8 2L46 20h-4.8L35.4 2h4.8l4.2 12.6L48.6 2h4.2z" fill="#000"/>
  <path d="M71.4 3.2C70.2 2.4 68.8 2 67.2 2c-1.6 0-3 .4-4.2 1.2-1.2.8-2.1 1.9-2.7 3.3-.6 1.4-.9 2.9-.9 4.5 0 1.6.3 3.1.9 4.5.6 1.4 1.5 2.5 2.7 3.3 1.2.8 2.6 1.2 4.2 1.2 1.6 0 3-.4 4.2-1.2 1.2-.8 2.1-1.9 2.7-3.3.6-1.4.9-2.9.9-4.5 0-1.6-.3-3.1-.9-4.5-.6-1.4-1.5-2.5-2.7-3.3zm-4.2 11.6c-.8 0-1.5-.3-2.1-.8-.6-.5-.9-1.2-.9-2s.3-1.5.9-2c.6-.5 1.3-.8 2.1-.8.8 0 1.5.3 2.1.8.6.5.9 1.2.9 2s-.3 1.5-.9 2c-.6.5-1.3.8-2.1.8z" fill="#000"/>
</svg>
